<svg width="70" height="79" viewBox="0 0 70 79" fill="none" xmlns="http://www.w3.org/2000/svg">
<path fill-rule="evenodd" clip-rule="evenodd" d="M25.1852 19.5637C25.4937 18.8939 25.8551 18.3736 26.094 18.0992C26.0987 18.7463 25.9989 19.3267 25.8445 19.8311C26.3198 20.0604 26.8137 20.3814 27.2856 20.8244C26.922 20.8134 26.2945 20.7253 25.5931 20.4968C25.2699 21.2097 24.8612 21.7019 24.5933 21.9311C24.6115 21.3311 24.7377 20.7562 24.915 20.2375C24.414 20.0155 23.9064 19.7177 23.4538 19.3237C23.8039 19.2827 24.4425 19.317 25.1852 19.5637Z" fill="url(#paint0_linear_137_687)"/>
<path fill-rule="evenodd" clip-rule="evenodd" d="M22.7459 12.8534C22.9513 12.4075 23.1918 12.0612 23.3508 11.8786C23.3539 12.3093 23.2875 12.6956 23.1848 13.0314C23.5011 13.184 23.8299 13.3977 24.1441 13.6926C23.902 13.6852 23.4843 13.6266 23.0174 13.4745C22.8023 13.949 22.5303 14.2767 22.3519 14.4292C22.364 14.0298 22.448 13.6471 22.5661 13.3019C22.2326 13.1541 21.8947 12.9559 21.5935 12.6937C21.8265 12.6664 22.2516 12.6892 22.7459 12.8534Z" fill="url(#paint1_linear_137_687)"/>
<path fill-rule="evenodd" clip-rule="evenodd" d="M16.1447 6.18306C16.4532 5.51325 16.8146 4.99294 17.0534 4.71859C17.0581 5.36566 16.9584 5.94608 16.804 6.45053C17.2793 6.67977 17.7732 7.00078 18.2451 7.44376C17.8815 7.43276 17.254 7.34467 16.5526 7.11621C16.2293 7.82909 15.8207 8.3213 15.5528 8.55045C15.5709 7.95051 15.6972 7.37554 15.8745 6.85688C15.3735 6.63485 14.8658 6.33711 14.4132 5.94311C14.7633 5.90207 15.402 5.93635 16.1447 6.18306Z" fill="url(#paint2_linear_137_687)"/>
<path fill-rule="evenodd" clip-rule="evenodd" d="M15.0992 21.2011C15.5532 20.2155 16.085 19.4499 16.4364 19.0462C16.4433 19.9984 16.2965 20.8525 16.0693 21.5947C16.7682 21.9319 17.4945 22.4041 18.1885 23.0555C17.6537 23.0394 16.7309 22.9098 15.6994 22.5739C15.2238 23.6226 14.6227 24.3467 14.2286 24.6838C14.2553 23.8013 14.441 22.9555 14.7018 22.1925C13.9644 21.8658 13.2171 21.4276 12.551 20.8477C13.0662 20.7873 14.0062 20.8378 15.0992 21.2011Z" fill="url(#paint3_linear_137_687)"/>
<circle cx="17.83" cy="14.4563" r="0.397721" transform="rotate(21.3865 17.83 14.4563)" fill="#2F235A"/>
<circle cx="27.6775" cy="9.45555" r="0.397721" transform="rotate(21.3865 27.6775 9.45555)" fill="#4E7BED"/>
<circle cx="8.77389" cy="11.6279" r="0.397721" transform="rotate(21.3865 8.77389 11.6279)" fill="#4EBDED"/>
<circle cx="17.3147" cy="27.6421" r="0.397721" transform="rotate(21.3865 17.3147 27.6421)" fill="#23BB86"/>
<path d="M27.3756 7.55447C26.9886 6.07665 25.592 2.69679 23.101 1" stroke="#4E7BED" stroke-width="0.346178" stroke-linecap="round"/>
<path d="M7.60023 10.0235C6.63742 8.83743 3.96945 6.33626 1.00001 5.8199" stroke="#4EBDED" stroke-width="0.346178" stroke-linecap="round"/>
<path d="M15.6223 28.2202C14.7691 28.5314 12.6211 29.523 10.8554 30.9998" stroke="#23BB86" stroke-width="0.346178" stroke-linecap="round"/>
<path fill-rule="evenodd" clip-rule="evenodd" d="M44.8954 19.5637C44.5868 18.8939 44.2254 18.3735 43.9866 18.0992C43.9819 18.7463 44.0817 19.3267 44.2361 19.8311C43.7608 20.0604 43.2669 20.3814 42.7949 20.8244C43.1586 20.8134 43.7861 20.7253 44.4875 20.4968C44.8107 21.2097 45.2194 21.7019 45.4873 21.9311C45.4691 21.3311 45.3429 20.7561 45.1655 20.2375C45.6666 20.0154 46.1742 19.7177 46.6268 19.3237C46.2767 19.2827 45.638 19.317 44.8954 19.5637Z" fill="url(#paint4_linear_137_687)"/>
<path fill-rule="evenodd" clip-rule="evenodd" d="M47.3332 12.8533C47.1278 12.4075 46.8872 12.0612 46.7283 11.8786C46.7252 12.3093 46.7915 12.6956 46.8943 13.0314C46.5779 13.1839 46.2491 13.3976 45.935 13.6925C46.177 13.6852 46.5948 13.6265 47.0616 13.4745C47.2768 13.949 47.5488 14.2767 47.7272 14.4292C47.7151 14.0298 47.631 13.6471 47.513 13.3018C47.8465 13.154 48.1843 12.9559 48.4856 12.6936C48.2526 12.6663 47.8275 12.6891 47.3332 12.8533Z" fill="url(#paint5_linear_137_687)"/>
<path fill-rule="evenodd" clip-rule="evenodd" d="M53.9349 6.1828C53.6264 5.513 53.265 4.99269 53.0262 4.71834C53.0215 5.3654 53.1212 5.94581 53.2756 6.45026C52.8003 6.6795 52.3064 7.00052 51.8345 7.4435C52.1981 7.4325 52.8256 7.34442 53.527 7.11595C53.8503 7.82883 54.2589 8.32104 54.5268 8.55019C54.5087 7.95025 54.3824 7.37527 54.2051 6.85662C54.7061 6.63458 55.2138 6.33685 55.6663 5.94286C55.3163 5.90182 54.6776 5.93609 53.9349 6.1828Z" fill="url(#paint6_linear_137_687)"/>
<path fill-rule="evenodd" clip-rule="evenodd" d="M54.9811 21.2013C54.5271 20.2157 53.9953 19.4501 53.6439 19.0465C53.637 19.9986 53.7838 20.8527 54.0111 21.595C53.3121 21.9322 52.5858 22.4043 51.8918 23.0558C52.4266 23.0396 53.3494 22.9101 54.3809 22.5742C54.8565 23.6229 55.4576 24.3469 55.8517 24.684C55.825 23.8015 55.6394 22.9557 55.3785 22.1928C56.116 21.8661 56.8632 21.4279 57.5293 20.848C57.0141 20.7876 56.0741 20.8381 54.9811 21.2013Z" fill="url(#paint7_linear_137_687)"/>
<circle cx="0.397721" cy="0.397721" r="0.397721" transform="matrix(-0.931142 0.364658 0.364658 0.931142 52.4753 13.9409)" fill="#2F235A"/>
<circle cx="0.397721" cy="0.397721" r="0.397721" transform="matrix(-0.931142 0.364658 0.364658 0.931142 42.6279 8.93994)" fill="#4E7BED"/>
<circle cx="0.397721" cy="0.397721" r="0.397721" transform="matrix(-0.931142 0.364658 0.364658 0.931142 61.5315 11.1125)" fill="#4EBDED"/>
<circle cx="0.397721" cy="0.397721" r="0.397721" transform="matrix(-0.931142 0.364658 0.364658 0.931142 52.9905 27.1267)" fill="#23BB86"/>
<path d="M42.7043 7.55447C43.0912 6.07665 44.4878 2.69679 46.9788 1" stroke="#4E7BED" stroke-width="0.346178" stroke-linecap="round"/>
<path d="M62.4794 10.0235C63.4422 8.83743 66.1101 6.33626 69.0796 5.8199" stroke="#4EBDED" stroke-width="0.346178" stroke-linecap="round"/>
<path d="M54.4578 28.2202C55.311 28.5314 57.4589 29.523 59.2247 30.9998" stroke="#23BB86" stroke-width="0.346178" stroke-linecap="round"/>
<rect x="13.9324" y="49.5161" width="42.2141" height="29.181" fill="url(#paint8_linear_137_687)"/>
<mask id="mask0_137_687" style="mask-type:alpha" maskUnits="userSpaceOnUse" x="13" y="49" width="44" height="30">
<rect x="13.9324" y="49.5161" width="42.2141" height="29.181" fill="#C4C4C4"/>
</mask>
<g mask="url(#mask0_137_687)">
<path d="M15.9296 48.7732L44.6745 48.7732L38.1775 60.0544L9.43262 60.0544L15.9296 48.7732Z" fill="black" fill-opacity="0.07"/>
<rect x="42.6394" y="49.5161" width="42.2141" height="29.181" fill="url(#paint9_linear_137_687)"/>
</g>
<path d="M13.8954 49.5161L42.6403 49.5161L37.0876 58.7822L8.34277 58.7822L13.8954 49.5161Z" fill="url(#paint10_linear_137_687)"/>
<mask id="mask1_137_687" style="mask-type:alpha" maskUnits="userSpaceOnUse" x="42" y="49" width="15" height="30">
<rect x="42.6396" y="49.5161" width="13.5065" height="29.181" fill="#C4C4C4"/>
</mask>
<g mask="url(#mask1_137_687)">
<path d="M54.502 49.4675L40.9743 49.4675L47.3307 60.1357L60.8584 60.1357L54.502 49.4675Z" fill="black" fill-opacity="0.07"/>
</g>
<path d="M56.1673 49.5161L42.6397 49.5161L48.1923 58.7822L61.72 58.7822L56.1673 49.5161Z" fill="url(#paint11_linear_137_687)"/>
<circle cx="27.9577" cy="42.0837" r="3.98921" fill="url(#paint12_linear_137_687)"/>
<circle cx="43.5565" cy="34.2396" r="3.85479" fill="url(#paint13_linear_137_687)"/>
<circle cx="28.8382" cy="27.2762" r="3.10851" fill="url(#paint14_linear_137_687)"/>
<circle cx="40.7444" cy="20.1636" r="2.812" fill="url(#paint15_linear_137_687)"/>
<circle cx="36.1685" cy="30.6983" r="0.775212" fill="#4E7BED"/>
<circle cx="48.1868" cy="24.9429" r="0.775212" fill="#4E7BED"/>
<circle cx="29.6136" cy="15.6832" r="0.775212" fill="#4E7BED"/>
<circle cx="39.9695" cy="43.8052" r="0.775212" fill="#4E7BED"/>
<circle cx="22.0455" cy="31.4735" r="0.775212" fill="#4E7BED"/>
<path d="M56.2462 49.6543H13.899L7.39551 9.55566H64.0555L56.2462 49.6543Z" fill="url(#paint16_linear_137_687)"/>
<defs>
<linearGradient id="paint0_linear_137_687" x1="25.9768" y1="18.5237" x2="24.5678" y2="22.1216" gradientUnits="userSpaceOnUse">
<stop stop-color="#4EE3ED"/>
<stop offset="1" stop-color="#4EBDED"/>
</linearGradient>
<linearGradient id="paint1_linear_137_687" x1="23.2729" y1="12.1612" x2="22.335" y2="14.556" gradientUnits="userSpaceOnUse">
<stop stop-color="#4EE3ED"/>
<stop offset="1" stop-color="#4EBDED"/>
</linearGradient>
<linearGradient id="paint2_linear_137_687" x1="16.9363" y1="5.14312" x2="15.5273" y2="8.74099" gradientUnits="userSpaceOnUse">
<stop stop-color="#4EE3ED"/>
<stop offset="1" stop-color="#4EBDED"/>
</linearGradient>
<linearGradient id="paint3_linear_137_687" x1="16.2631" y1="19.6705" x2="14.1901" y2="24.9638" gradientUnits="userSpaceOnUse">
<stop stop-color="#4EE3ED"/>
<stop offset="1" stop-color="#4EBDED"/>
</linearGradient>
<linearGradient id="paint4_linear_137_687" x1="44.1037" y1="18.5237" x2="45.5127" y2="22.1216" gradientUnits="userSpaceOnUse">
<stop stop-color="#4EE3ED"/>
<stop offset="1" stop-color="#4EBDED"/>
</linearGradient>
<linearGradient id="paint5_linear_137_687" x1="46.8062" y1="12.1612" x2="47.7441" y2="14.556" gradientUnits="userSpaceOnUse">
<stop stop-color="#4EE3ED"/>
<stop offset="1" stop-color="#4EBDED"/>
</linearGradient>
<linearGradient id="paint6_linear_137_687" x1="53.1433" y1="5.14288" x2="54.5523" y2="8.74074" gradientUnits="userSpaceOnUse">
<stop stop-color="#4EE3ED"/>
<stop offset="1" stop-color="#4EBDED"/>
</linearGradient>
<linearGradient id="paint7_linear_137_687" x1="53.8172" y1="19.6707" x2="55.8902" y2="24.964" gradientUnits="userSpaceOnUse">
<stop stop-color="#4EE3ED"/>
<stop offset="1" stop-color="#4EBDED"/>
</linearGradient>
<linearGradient id="paint8_linear_137_687" x1="28.0338" y1="44.1136" x2="11.2093" y2="90.4533" gradientUnits="userSpaceOnUse">
<stop stop-color="#4EE3ED"/>
<stop offset="1" stop-color="#4E7BED"/>
</linearGradient>
<linearGradient id="paint9_linear_137_687" x1="21.1345" y1="47.6653" x2="72.1952" y2="102.231" gradientUnits="userSpaceOnUse">
<stop stop-color="#4EE3ED"/>
<stop offset="0.83311" stop-color="#4E7BED"/>
</linearGradient>
<linearGradient id="paint10_linear_137_687" x1="14.487" y1="46.2044" x2="13.1209" y2="65.9476" gradientUnits="userSpaceOnUse">
<stop stop-color="#4EE3ED"/>
<stop offset="1" stop-color="#4E7BED"/>
</linearGradient>
<linearGradient id="paint11_linear_137_687" x1="58.3019" y1="46.2044" x2="60.7316" y2="65.74" gradientUnits="userSpaceOnUse">
<stop stop-color="#4EE3ED"/>
<stop offset="1" stop-color="#4E7BED"/>
</linearGradient>
<linearGradient id="paint12_linear_137_687" x1="28.2598" y1="36.7779" x2="27.501" y2="47.5457" gradientUnits="userSpaceOnUse">
<stop stop-color="#4EE3ED"/>
<stop offset="1" stop-color="#4E7BED"/>
</linearGradient>
<linearGradient id="paint13_linear_137_687" x1="43.8484" y1="29.1126" x2="43.1151" y2="39.5176" gradientUnits="userSpaceOnUse">
<stop stop-color="#4EE3ED"/>
<stop offset="1" stop-color="#4E7BED"/>
</linearGradient>
<linearGradient id="paint14_linear_137_687" x1="29.0736" y1="23.1418" x2="28.4823" y2="31.5324" gradientUnits="userSpaceOnUse">
<stop stop-color="#4EE3ED"/>
<stop offset="1" stop-color="#4E7BED"/>
</linearGradient>
<linearGradient id="paint15_linear_137_687" x1="40.9573" y1="16.4235" x2="40.4224" y2="24.0138" gradientUnits="userSpaceOnUse">
<stop stop-color="#4EE3ED"/>
<stop offset="1" stop-color="#4E7BED"/>
</linearGradient>
<linearGradient id="paint16_linear_137_687" x1="35.2599" y1="9.55566" x2="35.26" y2="94.7463" gradientUnits="userSpaceOnUse">
<stop stop-color="white" stop-opacity="0"/>
<stop offset="1" stop-color="#4EE3ED"/>
</linearGradient>
</defs>
</svg>
